<svg width="46" height="42" viewBox="0 0 46 42" fill="none" xmlns="http://www.w3.org/2000/svg">
<path d="M22.9998 17.0626C25.1457 17.0626 26.8957 18.8126 26.8957 21.0001C26.8957 23.0834 25.1457 24.8543 22.9998 24.8543C20.854 24.8543 19.104 23.0834 19.104 21.0001C19.104 18.8126 20.854 17.0626 22.9998 17.0626ZM13.354 37.6668C14.6665 38.4584 17.5415 37.2501 20.854 34.1251C19.7707 32.8959 18.7082 31.5626 17.7082 30.1668C16.0293 30.0061 14.3603 29.7557 12.7082 29.4168C11.6457 33.8751 12.0415 36.9376 13.354 37.6668ZM14.8332 25.7084L14.229 24.6459C13.9998 25.2501 13.7707 25.8543 13.6248 26.4376C14.1873 26.5626 14.8123 26.6668 15.4582 26.7709L14.8332 25.7084ZM28.4582 24.1251L30.1457 21.0001L28.4582 17.8751C27.8332 16.7709 27.1665 15.7918 26.5623 14.8126C25.4373 14.7501 24.2498 14.7501 22.9998 14.7501C21.7498 14.7501 20.5623 14.7501 19.4373 14.8126C18.8332 15.7918 18.1665 16.7709 17.5415 17.8751L15.854 21.0001L17.5415 24.1251C18.1665 25.2293 18.8332 26.2084 19.4373 27.1876C20.5623 27.2501 21.7498 27.2501 22.9998 27.2501C24.2498 27.2501 25.4373 27.2501 26.5623 27.1876C27.1665 26.2084 27.8332 25.2293 28.4582 24.1251ZM22.9998 10.1251C22.604 10.5834 22.1873 11.0626 21.7707 11.6251H24.229C23.8123 11.0626 23.3957 10.5834 22.9998 10.1251ZM22.9998 31.8751C23.3957 31.4168 23.8123 30.9376 24.229 30.3751H21.7707C22.1873 30.9376 22.604 31.4168 22.9998 31.8751ZM32.6248 4.33342C31.3332 3.54175 28.4582 4.75008 25.1457 7.87509C26.229 9.10425 27.2915 10.4376 28.2915 11.8334C29.9998 12.0001 31.6873 12.2501 33.2915 12.5834C34.354 8.12509 33.9582 5.06258 32.6248 4.33342ZM31.1665 16.2918L31.7707 17.3543C31.9998 16.7501 32.229 16.1459 32.3748 15.5626C31.8123 15.4376 31.1873 15.3334 30.5415 15.2293L31.1665 16.2918ZM34.1873 1.60425C37.2498 3.35425 37.5832 7.95842 36.2915 13.3334C41.5832 14.8959 45.3957 17.4793 45.3957 21.0001C45.3957 24.5209 41.5832 27.1043 36.2915 28.6668C37.5832 34.0418 37.2498 38.6459 34.1873 40.3959C31.1457 42.1459 26.9998 40.1459 22.9998 36.3334C18.9998 40.1459 14.854 42.1459 11.7915 40.3959C8.74984 38.6459 8.4165 34.0418 9.70817 28.6668C4.4165 27.1043 0.604004 24.5209 0.604004 21.0001C0.604004 17.4793 4.4165 14.8959 9.70817 13.3334C8.4165 7.95842 8.74984 3.35425 11.7915 1.60425C14.854 -0.145748 18.9998 1.85425 22.9998 5.66675C26.9998 1.85425 31.1457 -0.145748 34.1873 1.60425ZM33.5832 21.0001C34.2915 22.5626 34.9165 24.1251 35.4373 25.7084C39.8123 24.3959 42.2707 22.5209 42.2707 21.0001C42.2707 19.4793 39.8123 17.6043 35.4373 16.2918C34.9165 17.8751 34.2915 19.4376 33.5832 21.0001ZM12.4165 21.0001C11.7082 19.4376 11.0832 17.8751 10.5623 16.2918C6.18734 17.6043 3.729 19.4793 3.729 21.0001C3.729 22.5209 6.18734 24.3959 10.5623 25.7084C11.0832 24.1251 11.7082 22.5626 12.4165 21.0001ZM31.1665 25.7084L30.5415 26.7709C31.1873 26.6668 31.8123 26.5626 32.3748 26.4376C32.229 25.8543 31.9998 25.2501 31.7707 24.6459L31.1665 25.7084ZM25.1457 34.1251C28.4582 37.2501 31.3332 38.4584 32.6248 37.6668C33.9582 36.9376 34.354 33.8751 33.2915 29.4168C31.6873 29.7501 29.9998 30.0001 28.2915 30.1668C27.2915 31.5626 26.229 32.8959 25.1457 34.1251ZM14.8332 16.2918L15.4582 15.2293C14.8123 15.3334 14.1873 15.4376 13.6248 15.5626C13.7707 16.1459 13.9998 16.7501 14.229 17.3543L14.8332 16.2918ZM20.854 7.87509C17.5415 4.75008 14.6665 3.54175 13.354 4.33342C12.0415 5.06258 11.6457 8.12509 12.7082 12.5834C14.3603 12.2444 16.0293 11.9941 17.7082 11.8334C18.7082 10.4376 19.7707 9.10425 20.854 7.87509Z" fill="#162447"/>
</svg>