<svg width="38" height="40" viewBox="0 0 38 40" fill="none" xmlns="http://www.w3.org/2000/svg">
<path d="M20.25 0.958227C25.8125 3.54156 31.5 6.22906 37.0417 8.81239C37.3542 8.95823 37.75 9.06239 37.75 9.47906C37.75 9.89573 37.3542 9.97906 37.0417 10.1249C31.5 12.7082 25.875 15.3541 20.2917 17.9166C19.8951 18.1317 19.4511 18.2444 19 18.2444C18.5489 18.2444 18.1049 18.1317 17.7083 17.9166C12.1042 15.3332 6.5 12.7082 0.916667 10.1041C0.625 9.97906 0.25 9.87489 0.25 9.45823C0.25 9.08323 0.625 8.97906 0.895833 8.85406C6.5 6.22906 12.2083 3.54156 17.8333 0.937393C18.4375 0.66656 19.625 0.687393 20.25 0.958227ZM19 39.0624C18.5833 39.0624 18.2917 38.8957 17.7083 38.6874C12.1042 36.1041 6.5 33.4791 0.9375 30.8749C0.645833 30.7291 0.25 30.6457 0.25 30.2082C0.25 29.7916 0.645833 29.7082 0.958333 29.5624C1.875 29.1249 2.8125 28.6874 3.72917 28.2499C4.66667 27.8332 5.58333 27.8332 6.5 28.2707C10.2292 29.9999 13.9375 31.7291 17.6458 33.4582C18.5625 33.8957 19.4792 33.8749 20.3958 33.4582C24.1042 31.7082 27.8125 29.9791 31.5 28.2499C32.4167 27.8332 33.3125 27.8124 34.1875 28.2291C35.1875 28.6666 36.1667 29.1457 37.1458 29.6041C37.2917 29.6666 37.4375 29.7499 37.5625 29.8541C37.8333 30.0624 37.8333 30.4166 37.5625 30.5832C37.3958 30.7082 37.2083 30.8124 37.0208 30.8957C31.5 33.5416 25.9375 36.0832 20.375 38.6457C19.9583 38.8541 19.3958 39.0624 19 39.0624ZM19 28.6874C18.7917 28.6874 18.0625 28.4791 17.6667 28.3332C12.0833 25.7082 6.5 23.1249 0.958333 20.4999C0.666666 20.3749 0.25 20.2707 0.25 19.8541C0.25 19.4166 0.666666 19.3332 0.979166 19.1874C1.91667 18.7291 2.85417 18.2916 3.79167 17.8541C4.6875 17.4582 5.58333 17.4582 6.5 17.9166C10.2083 19.6249 13.9583 21.3749 17.7083 23.1249C18.5625 23.5207 19.4375 23.5207 20.3125 23.1249C24.0625 21.3541 27.8125 19.6041 31.5833 17.8541C32.4375 17.4582 33.3125 17.4582 34.1875 17.8541C35.1667 18.3124 36.1667 18.7707 37.1458 19.2291C37.2708 19.2916 37.4167 19.3541 37.5417 19.4582C37.8333 19.6874 37.8333 19.9999 37.5208 20.2499C37.4167 20.3332 37.2708 20.3957 37.1458 20.4582C31.5 23.1249 25.8958 25.7291 20.2708 28.3332C19.875 28.5207 19.1667 28.6874 19 28.6874Z" fill="#162447"/>
</svg>